# xmcd
#
# Track frame offsets:
#	150
#	16380
#	27783
#	45169
#	62269
#	77787
#	93211
#	106541
#	125519
#	138176
#	156973
#	169566
#	188550
#	198928
#	215043
#	237166
#	253849
#	262003
#	274890
#	288048
#	303546
#	322391
#	338701
#
# Disc length: 4723 seconds
# Revision: 0
# Processed by: cddbd v1.5.2PL0 Copyright (c) Steve Scherf et al.
# Submitted via: dBpowerAMP V12.0
#
DISCID=39127117
DTITLE=Various Artist - CRS193
DYEAR=2016
DGENRE=Country
TTITLE0=Dianne Lindsay -  A Touch Of Snow
TTITLE1=Runaway Dixie - Roundabout
TTITLE2=Justin Standley - Beechworth Gold
TTITLE3=Natalie Howard - A Little Cold Right Now
TTITLE4=Michelle Walker - Men In Our Lives
TTITLE5=Chris Boots Lee - Best Bad Habit
TTITLE6=Sharon Heaslip - That'll Be Me
TTITLE7=Ian Burns - Ride Away
TTITLE8=Lindsay Butler OAM and Peggy Gilchrist - Gospel Road
TTITLE9=Emma Jene - Cross Your Heart
TTITLE10=Rhiannon Cooke - Don't Call Me A City Girl
TTITLE11=Chris James - Our Country's Pride
TTITLE12=Lindsay Waddington - Twenty Five
TTITLE13=Kylie Adams-Collier - Sweet Dreams 'til Morning
TTITLE14=Heywood-Moore - Goodbye Yesterday
TTITLE15=Cameron Mason - I'll See Ya 'Round Mate
TTITLE16=Taylor Pfeiffer - Whoa Mule
TTITLE17=Jillian Lampkin - Summer in the Sunshine
TTITLE18=Steve Sparrow - Just Can't Sleep
TTITLE19=Karl Mohr - No Better Place Than Australia
TTITLE20=Michelle Banting - Time
TTITLE21=Love Child - Like A Child
TTITLE22=Fletcher Morley - The Passing of Time
EXTD=
EXTT0=
EXTT1=
EXTT2=
EXTT3=
EXTT4=
EXTT5=
EXTT6=
EXTT7=
EXTT8=
EXTT9=
EXTT10=
EXTT11=
EXTT12=
EXTT13=
EXTT14=
EXTT15=
EXTT16=
EXTT17=
EXTT18=
EXTT19=
EXTT20=
EXTT21=
EXTT22=
PLAYORDER=
